<?xml version="1.0" encoding="UTF-8" standalone="no"?>
<svg
   xmlns:dc="http://purl.org/dc/elements/1.1/"
   xmlns:cc="http://creativecommons.org/ns#"
   xmlns:rdf="http://www.w3.org/1999/02/22-rdf-syntax-ns#"
   xmlns:svg="http://www.w3.org/2000/svg"
   xmlns="http://www.w3.org/2000/svg"
   xmlns:sodipodi="http://sodipodi.sourceforge.net/DTD/sodipodi-0.dtd"
   xmlns:inkscape="http://www.inkscape.org/namespaces/inkscape"
   enable-background="new 0 0 26 26"
   id="Слой_1"
   version="1.1"
   viewBox="0 0 15 15"
   xml:space="preserve"
   sodipodi:docname="close-icon.svg"
   width="15"
   height="15"
   inkscape:version="0.92.3 (2405546, 2018-03-11)"><metadata
     id="metadata4556"><rdf:RDF><cc:Work
         rdf:about=""><dc:format>image/svg+xml</dc:format><dc:type
           rdf:resource="http://purl.org/dc/dcmitype/StillImage" /><dc:title /></cc:Work></rdf:RDF></metadata><defs
     id="defs4554" /><sodipodi:namedview
     pagecolor="#ffffff"
     bordercolor="#666666"
     borderopacity="1"
     objecttolerance="10"
     gridtolerance="10"
     guidetolerance="10"
     inkscape:pageopacity="0"
     inkscape:pageshadow="2"
     inkscape:window-width="1600"
     inkscape:window-height="837"
     id="namedview4552"
     showgrid="false"
     height="21px"
     width="16px"
     inkscape:zoom="25.692308"
     inkscape:cx="13"
     inkscape:cy="13"
     inkscape:window-x="-8"
     inkscape:window-y="-8"
     inkscape:window-maximized="1"
     inkscape:current-layer="Слой_1" /><path
     d="M 6.4793684,9.0389175 11.83923,3.6790492 c 0.146495,-0.1464872 0.146495,-0.3837908 0,-0.530275 -0.146492,-0.1464847 -0.383781,-0.1464847 -0.530276,0 L 5.9490975,8.5086461 0.5892375,3.1487742 c -0.14648419,-0.1464847 -0.38378841,-0.1464847 -0.53027282,0 -0.14648436,0.1464847 -0.14648436,0.3837878 0,0.530275 L 5.4188235,9.0389175 0.05896468,14.398785 c -0.14648436,0.146494 -0.14648436,0.383784 0,0.530281 0.07324193,0.07324 0.16894503,0.10985 0.26513654,0.10985 0.0961915,0 0.19189453,-0.0367 0.26513628,-0.10985 l 5.35986,-5.3598785 5.3598565,5.3598785 c 0.07324,0.07324 0.168956,0.10985 0.265137,0.10985 0.09619,0 0.191907,-0.03663 0.265139,-0.10985 0.146495,-0.146497 0.146495,-0.383787 0,-0.530281 z"
     id="path4549"
     inkscape:connector-curvature="0"
     style="fill:#1d1d1b;stroke-width:0.5" /></svg>